<svg width="88" height="100" viewBox="0 0 88 100" fill="none" xmlns="http://www.w3.org/2000/svg">
<path d="M0.5 25.2894L43.5185 0.576631L86.537 25.2894V74.7106L43.5185 99.4234L0.5 74.7106V25.2894Z" stroke="url(#paint0_linear_10_881)"/>
<path d="M6.05566 28.5304L43.5186 7.05775L80.9816 28.5304V71.4695L43.5186 92.9422L6.05566 71.4695V28.5304Z" stroke="url(#paint1_linear_10_881)"/>
<path d="M11.6113 32.0013L43.5187 13.5405L75.4261 32.0013V68.9245L43.5187 87.3852L11.6113 68.9245V32.0013Z" stroke="url(#paint2_linear_10_881)"/>
<path d="M17.167 34.5458L43.5188 19.0981L69.8707 34.5458V65.4543L43.5188 80.9019L17.167 65.4543V34.5458Z" stroke="url(#paint3_linear_10_881)"/>
<path d="M22.7227 37.7894L43.9819 25.5766L65.2412 37.7894V62.2106L43.9819 74.4234L22.7227 62.2106V37.7894Z" stroke="url(#paint4_linear_10_881)"/>
<path d="M43.981 31.4814L60.1847 40.7407V59.2592L43.981 68.5185L27.7773 59.2592V40.7407L43.981 31.4814Z" fill="url(#paint5_radial_10_881)"/>
<defs>
<linearGradient id="paint0_linear_10_881" x1="27.03" y1="-1.49012e-06" x2="64.3887" y2="100.123" gradientUnits="userSpaceOnUse">
<stop stop-color="white"/>
<stop offset="1" stop-color="white" stop-opacity="0"/>
</linearGradient>
<linearGradient id="paint1_linear_10_881" x1="29.135" y1="6.48144" x2="61.5953" y2="93.6736" gradientUnits="userSpaceOnUse">
<stop stop-color="white"/>
<stop offset="1" stop-color="white" stop-opacity="0"/>
</linearGradient>
<linearGradient id="paint2_linear_10_881" x1="31.24" y1="12.9629" x2="59.4098" y2="87.9238" gradientUnits="userSpaceOnUse">
<stop stop-color="white"/>
<stop offset="1" stop-color="white" stop-opacity="0"/>
</linearGradient>
<linearGradient id="paint3_linear_10_881" x1="33.345" y1="18.5186" x2="57.2273" y2="81.2424" gradientUnits="userSpaceOnUse">
<stop stop-color="white"/>
<stop offset="1" stop-color="white" stop-opacity="0"/>
</linearGradient>
<linearGradient id="paint4_linear_10_881" x1="35.7376" y1="25" x2="54.4169" y2="75.0615" gradientUnits="userSpaceOnUse">
<stop stop-color="white"/>
<stop offset="1" stop-color="white" stop-opacity="0"/>
</linearGradient>
<radialGradient id="paint5_radial_10_881" cx="0" cy="0" r="1" gradientUnits="userSpaceOnUse" gradientTransform="translate(43.9811 50) rotate(90) scale(18.5185 18.7104)">
<stop stop-color="white" stop-opacity="0.9"/>
<stop offset="1" stop-color="white" stop-opacity="0"/>
</radialGradient>
</defs>
</svg>
