<svg width="100" height="100" viewBox="0 0 100 100" fill="none" xmlns="http://www.w3.org/2000/svg">
<path fill-rule="evenodd" clip-rule="evenodd" d="M0.0239563 8.84985C0.00802612 9.1489 0 9.44911 0 9.75039C0 10.0517 0.00802612 10.3518 0.0239563 10.6509C0.00802612 10.9499 0 11.2501 0 11.5514C0 27.4658 22.3858 40.367 50 40.367C77.6142 40.367 100 27.4658 100 11.5514C100 11.2502 99.992 10.95 99.976 10.6509C99.992 10.3519 100 10.0517 100 9.75039C100 9.44912 99.992 9.14892 99.976 8.84987C99.992 8.55082 100 8.25063 100 7.94935C100 7.64816 99.992 7.34805 99.9761 7.04908C99.992 6.75011 100 6.45 100 6.14881C100 5.84745 99.992 5.54717 99.976 5.24804C99.992 4.94891 100 4.64864 100 4.34728C100 4.04609 99.992 3.74597 99.9761 3.44701C99.992 3.14804 100 2.84793 100 2.54673C100 2.24546 99.992 1.94526 99.976 1.64622C99.9818 1.53812 99.9865 1.42988 99.9902 1.32149C97.7076 3.62034 94.958 5.74457 91.8162 7.65097C89.8347 9.51535 87.4605 11.2518 84.7355 12.8223C75.9082 17.9095 63.63 21.0961 50 21.0961C36.37 21.0961 24.0918 17.9095 15.2645 12.8223C11.8652 10.8632 9.01185 8.64583 6.78569 6.24407C15.4543 14.8042 31.5616 20.5561 50 20.5561C67.2261 20.5561 82.4176 15.5357 91.4095 7.89519C88.7516 9.47523 85.8211 10.9014 82.6619 12.1482C74.0323 16.5744 62.5931 19.2946 50 19.2946C36.37 19.2946 24.0918 16.108 15.2645 11.0207C14.5066 10.584 13.7758 10.1343 13.0731 9.67264C7.74108 6.96172 3.29453 3.68299 0.0164185 0C0.00550079 0.2478 0 0.496379 0 0.745696C0 1.04698 0.00802612 1.34713 0.0239563 1.64619C0.00802612 1.94525 0 2.24545 0 2.54673C0 2.84794 0.00801849 3.148 0.023941 3.44698C0.00801849 3.74596 0 4.04608 0 4.34728C0 4.64864 0.00802612 4.94888 0.0239639 5.24802C0.00802612 5.54716 0 5.84744 0 6.14881C0 6.45001 0.00801849 6.75008 0.023941 7.04905C0.00801849 7.34803 0 7.64815 0 7.94935C0 8.25064 0.00802612 8.55079 0.0239563 8.84985ZM6.79648 8.05625C15.4677 16.6105 31.5693 22.3576 50 22.3576C68.4307 22.3576 84.5323 16.6105 93.2035 8.05626C90.9789 10.4535 88.1293 12.6669 84.7355 14.6228C75.9082 19.7101 63.63 22.8967 50 22.8967C36.37 22.8967 24.0918 19.7101 15.2645 14.6228C11.8707 12.6669 9.02106 10.4535 6.79648 8.05625ZM15.2645 16.4239C11.868 14.4664 9.01643 12.251 6.79106 9.85145C15.461 18.4086 31.5655 24.1581 50 24.1581C68.4345 24.1581 84.539 18.4087 93.2089 9.85148C90.9835 12.251 88.132 14.4664 84.7355 16.4239C75.9082 21.5111 63.63 24.6977 50 24.6977C36.37 24.6977 24.0918 21.5111 15.2645 16.4239ZM6.79107 11.6525C9.01645 14.052 11.868 16.2674 15.2645 18.2249C24.0918 23.3121 36.37 26.4987 50 26.4987C63.63 26.4987 75.9082 23.3121 84.7355 18.2249C88.132 16.2674 90.9835 14.052 93.2089 11.6525C84.539 20.2097 68.4345 25.9592 50 25.9592C31.5655 25.9592 15.461 20.2097 6.79107 11.6525ZM15.2645 20.0259C11.868 18.0684 9.01643 15.853 6.79104 13.4535C15.461 22.0107 31.5655 27.7602 50 27.7602C68.4345 27.7602 84.539 22.0108 93.2089 13.4536C90.9835 15.8531 88.132 18.0685 84.7355 20.0259C75.9082 25.1132 63.63 28.2998 50 28.2998C36.37 28.2998 24.0918 25.1132 15.2645 20.0259ZM6.79108 15.2546C9.01646 17.6541 11.868 19.8695 15.2645 21.827C24.0918 26.9142 36.37 30.1008 50 30.1008C63.63 30.1008 75.9082 26.9142 84.7355 21.827C88.132 19.8695 90.9835 17.6541 93.2089 15.2546C84.5389 23.8118 68.4345 29.5612 50 29.5612C31.5655 29.5612 15.461 23.8118 6.79108 15.2546ZM15.2645 23.6275C11.8708 21.6716 9.02112 19.4583 6.79653 17.061C15.4678 25.6152 31.5694 31.3623 50 31.3623C68.4307 31.3623 84.5322 25.6152 93.2035 17.061C90.9789 19.4583 88.1292 21.6716 84.7355 23.6275C75.9082 28.7148 63.63 31.9014 50 31.9014C36.37 31.9014 24.0918 28.7148 15.2645 23.6275ZM6.78574 18.8509C9.0119 21.2526 11.8653 23.47 15.2645 25.4291C24.0918 30.5163 36.37 33.7029 50 33.7029C63.63 33.7029 75.9082 30.5163 84.7355 25.4291C88.1347 23.47 90.9881 21.2526 93.2142 18.8509C84.5456 27.411 68.4383 33.1628 50 33.1628C31.5617 33.1628 15.4544 27.411 6.78574 18.8509ZM15.2645 27.2296C11.8708 25.2737 9.02112 23.0603 6.79654 20.6631C15.4678 29.2173 31.5693 34.9644 50 34.9644C68.4307 34.9644 84.5323 29.2173 93.2035 20.663C90.9789 23.0603 88.1293 25.2737 84.7355 27.2296C75.9082 32.3168 63.63 35.5034 50 35.5034C36.37 35.5034 24.0918 32.3168 15.2645 27.2296ZM6.79115 22.4583C15.4611 31.0155 31.5655 36.7649 50 36.7649C68.4345 36.7649 84.539 31.0154 93.2089 22.4582C90.9835 24.8578 88.132 27.0732 84.7355 29.0306C75.9082 34.1179 63.63 37.3045 50 37.3045C36.37 37.3045 24.0918 34.1179 15.2645 29.0306C11.868 27.0732 9.01653 24.8578 6.79115 22.4583ZM84.7355 30.8317C88.132 28.8742 90.9835 26.6588 93.2089 24.2593C84.539 32.8165 68.4345 38.5659 50 38.5659C31.5654 38.5659 15.461 32.8165 6.79106 24.2593C9.01643 26.6588 11.868 28.8742 15.2645 30.8317C24.0918 35.9189 36.37 39.1055 50 39.1055C63.63 39.1055 75.9082 35.9189 84.7355 30.8317Z" fill="url(#paint0_linear_10_871)"/>
<path fill-rule="evenodd" clip-rule="evenodd" d="M99.976 91.1502C99.992 90.8511 100 90.5509 100 90.2496C100 89.9484 99.992 89.6482 99.976 89.3491C99.992 89.0501 100 88.7499 100 88.4486C100 72.5342 77.6142 59.6331 50 59.6331C22.3858 59.6331 0 72.5342 0 88.4486C0 88.7499 0.00802267 89.0501 0.0239516 89.3491C0.00802267 89.6482 0 89.9484 0 90.2496C0 90.5509 0.00802267 90.8511 0.0239516 91.1502C0.00802267 91.4492 0 91.7494 0 92.0507C0 92.3519 0.00801826 92.652 0.0239385 92.951C0.00801826 93.2499 0 93.55 0 93.8512C0 94.1526 0.00802708 94.4529 0.0239647 94.752C0.00802708 95.0511 0 95.3514 0 95.6528C0 95.9539 0.00801826 96.2541 0.0239385 96.553C0.00801826 96.852 0 97.1521 0 97.4533C0 97.7546 0.00802267 98.0548 0.0239516 98.3538C0.0181941 98.4619 0.0134695 98.5701 0.0097833 98.6785C2.29241 96.3797 5.04202 94.2555 8.18384 92.3491C10.1653 90.4847 12.5395 88.7482 15.2645 87.1778C24.0918 82.0905 36.37 78.9039 50 78.9039C63.63 78.9039 75.9082 82.0905 84.7355 87.1778C88.1348 89.1368 90.9882 91.3542 93.2143 93.756C84.5457 85.1958 68.4384 79.444 50 79.444C32.7739 79.444 17.5824 84.4644 8.59047 92.1048C11.2484 90.5248 14.1789 89.0987 17.3381 87.8518C25.9677 83.4256 37.4069 80.7054 50 80.7054C63.63 80.7054 75.9082 83.892 84.7355 88.9793C85.4934 89.4161 86.2242 89.8657 86.9269 90.3274C92.2589 93.0383 96.7055 96.317 99.9836 100C99.9945 99.7522 100 99.5037 100 99.2543C100 98.9531 99.992 98.6529 99.976 98.3538C99.992 98.0548 100 97.7546 100 97.4533C100 97.1521 99.992 96.852 99.9761 96.5531C99.992 96.2541 100 95.954 100 95.6528C100 95.3514 99.992 95.0512 99.976 94.752C99.992 94.4529 100 94.1526 100 93.8512C100 93.55 99.992 93.25 99.9761 92.951C99.992 92.652 100 92.3519 100 92.0507C100 91.7494 99.992 91.4492 99.976 91.1502ZM93.2035 91.9438C84.5323 83.3895 68.4307 77.6424 50 77.6424C31.5693 77.6424 15.4677 83.3895 6.79648 91.9438C9.02107 89.5465 11.8707 87.3331 15.2645 85.3772C24.0918 80.29 36.37 77.1034 50 77.1034C63.63 77.1034 75.9082 80.29 84.7355 85.3772C88.1293 87.3331 90.9789 89.5465 93.2035 91.9438ZM84.7355 83.5762C88.132 85.5336 90.9836 87.7491 93.2089 90.1486C84.539 81.5914 68.4345 75.8419 50 75.8419C31.5655 75.8419 15.461 81.5914 6.79109 90.1485C9.01647 87.749 11.868 85.5336 15.2645 83.5762C24.0918 78.4889 36.37 75.3023 50 75.3023C63.63 75.3023 75.9082 78.4889 84.7355 83.5762ZM93.2089 88.3475C90.9836 85.948 88.132 83.7326 84.7355 81.7751C75.9082 76.6879 63.63 73.5013 50 73.5013C36.37 73.5013 24.0918 76.6879 15.2645 81.7751C11.868 83.7326 9.01648 85.948 6.79111 88.3475C15.461 79.7903 31.5655 74.0409 50 74.0409C68.4345 74.0409 84.539 79.7904 93.2089 88.3475ZM84.7355 79.9741C88.132 81.9316 90.9836 84.147 93.209 86.5465C84.539 77.9893 68.4345 72.2398 50 72.2398C31.5655 72.2398 15.461 77.9893 6.79111 86.5465C9.01649 84.1469 11.868 81.9316 15.2645 79.9741C24.0918 74.8869 36.37 71.7003 50 71.7003C63.63 71.7003 75.9082 74.8869 84.7355 79.9741ZM93.2089 84.7455C90.9835 82.3459 88.132 80.1305 84.7355 78.1731C75.9082 73.0858 63.63 69.8992 50 69.8992C36.37 69.8992 24.0918 73.0858 15.2645 78.1731C11.868 80.1305 9.01651 82.3459 6.79114 84.7454C15.4611 76.1882 31.5655 70.4388 50 70.4388C68.4345 70.4388 84.539 76.1883 93.2089 84.7455ZM84.7355 76.3725C88.1292 78.3284 90.9789 80.5418 93.2035 82.939C84.5322 74.3848 68.4306 68.6378 50 68.6378C31.5693 68.6378 15.4678 74.3848 6.79653 82.939C9.02111 80.5418 11.8708 78.3284 15.2645 76.3725C24.0918 71.2853 36.37 68.0987 50 68.0987C63.63 68.0987 75.9082 71.2853 84.7355 76.3725ZM93.2143 81.1491C90.9881 78.7474 88.1347 76.53 84.7355 74.571C75.9082 69.4837 63.63 66.2971 50 66.2971C36.37 66.2971 24.0918 69.4837 15.2645 74.571C11.8653 76.53 9.01192 78.7474 6.78577 81.1491C15.4544 72.589 31.5617 66.8372 50 66.8372C68.4383 66.8372 84.5456 72.589 93.2143 81.1491ZM84.7355 72.7704C88.1292 74.7263 90.9789 76.9397 93.2035 79.3369C84.5322 70.7827 68.4307 65.0357 50 65.0357C31.5693 65.0357 15.4677 70.7828 6.79649 79.337C9.02108 76.9397 11.8707 74.7263 15.2645 72.7704C24.0918 67.6832 36.37 64.4966 50 64.4966C63.63 64.4966 75.9082 67.6832 84.7355 72.7704ZM93.2088 77.5417C84.5389 68.9846 68.4345 63.2351 50 63.2351C31.5655 63.2351 15.461 68.9846 6.79109 77.5418C9.01647 75.1423 11.868 72.9269 15.2645 70.9694C24.0918 65.8822 36.37 62.6956 50 62.6956C63.63 62.6956 75.9082 65.8822 84.7355 70.9694C88.132 72.9269 90.9835 75.1422 93.2088 77.5417ZM15.2645 69.1684C11.868 71.1258 9.01646 73.3412 6.79108 75.7407C15.461 67.1836 31.5655 61.4341 50 61.4341C68.4346 61.4341 84.539 67.1836 93.2089 75.7408C90.9836 73.3412 88.132 71.1258 84.7355 69.1684C75.9082 64.0811 63.63 60.8945 50 60.8945C36.37 60.8945 24.0918 64.0811 15.2645 69.1684Z" fill="url(#paint1_linear_10_871)"/>
<path fill-rule="evenodd" clip-rule="evenodd" d="M91.1499 0.0239563C90.8509 0.00802994 90.5507 0 90.2494 0C89.9481 0 89.648 0.00802994 89.3489 0.0239563C89.0498 0.00802994 88.7496 0 88.4484 0C72.534 0 59.6328 22.3858 59.6328 50C59.6328 77.6142 72.534 100 88.4484 100C88.7496 100 89.0498 99.992 89.3489 99.976C89.6479 99.992 89.9481 100 90.2494 100C90.5507 100 90.8509 99.992 91.1499 99.976C91.449 99.992 91.7492 100 92.0504 100C92.3516 100 92.6517 99.992 92.9507 99.9761C93.2497 99.992 93.5498 100 93.851 100C94.1523 100 94.4526 99.992 94.7517 99.976C95.0509 99.992 95.3512 100 95.6525 100C95.9537 100 96.2538 99.992 96.5528 99.9761C96.8517 99.992 97.1519 100 97.4531 100C97.7543 100 98.0545 99.992 98.3536 99.976C98.4617 99.9818 98.5699 99.9865 98.6783 99.9902C96.3794 97.7076 94.2552 94.958 92.3488 91.8162C90.4844 89.8347 88.748 87.4605 87.1775 84.7355C82.0903 75.9082 78.9037 63.63 78.9037 50C78.9037 36.37 82.0903 24.0918 87.1775 15.2645C89.1366 11.8652 91.354 9.01185 93.7557 6.78569C85.1956 15.4543 79.4437 31.5616 79.4437 50C79.4437 67.2261 84.4641 82.4176 92.1046 91.4095C90.5246 88.7516 89.0984 85.8211 87.8516 82.6619C83.4254 74.0323 80.7052 62.5931 80.7052 50C80.7052 36.37 83.8918 24.0918 88.979 15.2645C89.4158 14.5066 89.8655 13.7758 90.3271 13.0731C93.0381 7.74108 96.3168 3.29453 99.9998 0.0164223C99.752 0.0055027 99.5034 0 99.2541 0C98.9528 0 98.6527 0.00802994 98.3536 0.0239563C98.0545 0.00802994 97.7543 0 97.4531 0C97.1519 0 96.8518 0.0080204 96.5528 0.0239372C96.2538 0.0080204 95.9537 0 95.6525 0C95.3511 0 95.0509 0.00802994 94.7518 0.0239658C94.4526 0.00802994 94.1523 0 93.851 0C93.5498 0 93.2497 0.0080204 92.9507 0.0239372C92.6518 0.0080204 92.3516 0 92.0504 0C91.7491 0 91.449 0.00802994 91.1499 0.0239563ZM91.9435 6.79647C83.3893 15.4677 77.6422 31.5693 77.6422 50C77.6422 68.4307 83.3893 84.5323 91.9435 93.2035C89.5462 90.9789 87.3329 88.1293 85.377 84.7355C80.2897 75.9082 77.1031 63.63 77.1031 50C77.1031 36.37 80.2897 24.0918 85.377 15.2645C87.3329 11.8707 89.5463 9.02106 91.9435 6.79647ZM83.5759 15.2645C85.5334 11.868 87.7488 9.01644 90.1483 6.79106C81.5912 15.461 75.8417 31.5655 75.8417 50C75.8417 68.4345 81.5911 84.539 90.1483 93.2089C87.7488 90.9835 85.5334 88.132 83.5759 84.7355C78.4887 75.9082 75.3021 63.63 75.3021 50C75.3021 36.37 78.4887 24.0918 83.5759 15.2645ZM88.3473 6.79107C85.9478 9.01645 83.7324 11.868 81.7749 15.2645C76.6876 24.0918 73.501 36.37 73.501 50C73.501 63.63 76.6876 75.9082 81.7749 84.7355C83.7324 88.132 85.9477 90.9835 88.3472 93.2089C79.7901 84.539 74.0406 68.4345 74.0406 50C74.0406 31.5655 79.7901 15.461 88.3473 6.79107ZM79.9739 15.2645C81.9313 11.868 84.1468 9.01643 86.5463 6.79104C77.9891 15.461 72.2396 31.5655 72.2396 50C72.2396 68.4345 77.989 84.539 86.5462 93.2089C84.1467 90.9835 81.9313 88.132 79.9739 84.7355C74.8866 75.9082 71.7 63.63 71.7 50C71.7 36.37 74.8866 24.0918 79.9739 15.2645ZM84.7452 6.79108C82.3457 9.01646 80.1303 11.868 78.1728 15.2645C73.0856 24.0918 69.899 36.37 69.899 50C69.899 63.63 73.0856 75.9082 78.1728 84.7355C80.1303 88.132 82.3456 90.9835 84.7451 93.2089C76.188 84.5389 70.4385 68.4345 70.4385 50C70.4385 31.5655 76.188 15.461 84.7452 6.79108ZM76.3723 15.2645C78.3281 11.8708 80.5415 9.02112 82.9388 6.79653C74.3846 15.4678 68.6375 31.5694 68.6375 50C68.6375 68.4307 74.3846 84.5322 82.9388 93.2035C80.5415 90.9789 78.3281 88.1292 76.3723 84.7355C71.285 75.9082 68.0984 63.63 68.0984 50C68.0984 36.37 71.285 24.0918 76.3723 15.2645ZM81.1489 6.78575C78.7472 9.0119 76.5298 11.8653 74.5707 15.2645C69.4835 24.0918 66.2969 36.37 66.2969 50C66.2969 63.63 69.4835 75.9082 74.5707 84.7355C76.5298 88.1347 78.7471 90.9881 81.1489 93.2142C72.5888 84.5456 66.837 68.4383 66.837 50C66.837 31.5617 72.5888 15.4544 81.1489 6.78575ZM72.7702 15.2645C74.7261 11.8708 76.9394 9.02112 79.3367 6.79654C70.7825 15.4678 65.0354 31.5693 65.0354 50C65.0354 68.4307 70.7825 84.5323 79.3368 93.2035C76.9395 90.9789 74.7261 88.1293 72.7702 84.7355C67.683 75.9082 64.4964 63.63 64.4964 50C64.4964 36.37 67.683 24.0918 72.7702 15.2645ZM77.5415 6.79115C68.9843 15.4611 63.2349 31.5655 63.2349 50C63.2349 68.4345 68.9843 84.539 77.5415 93.2089C75.142 90.9835 72.9266 88.132 70.9692 84.7355C65.8819 75.9082 62.6953 63.63 62.6953 50C62.6953 36.37 65.8819 24.0918 70.9692 15.2645C72.9266 11.868 75.142 9.01652 77.5415 6.79115ZM69.1681 84.7355C71.1256 88.132 73.341 90.9835 75.7405 93.2089C67.1833 84.539 61.4339 68.4345 61.4339 50C61.4339 31.5654 67.1833 15.461 75.7405 6.79106C73.341 9.01644 71.1256 11.868 69.1681 15.2645C64.0809 24.0918 60.8943 36.37 60.8943 50C60.8943 63.63 64.0809 75.9082 69.1681 84.7355Z" fill="url(#paint2_linear_10_871)"/>
<path fill-rule="evenodd" clip-rule="evenodd" d="M8.84985 0.0239563C9.1489 0.00802994 9.44911 0 9.75039 0C10.0517 0 10.3518 0.00802994 10.6509 0.0239563C10.9499 0.00802994 11.2501 0 11.5514 0C27.4658 0 40.367 22.3858 40.367 50C40.367 77.6142 27.4658 100 11.5514 100C11.2502 100 10.95 99.992 10.6509 99.976C10.3519 99.992 10.0517 100 9.75039 100C9.44912 100 9.14892 99.992 8.84987 99.976C8.55082 99.992 8.25063 100 7.94935 100C7.64816 100 7.34805 99.992 7.04908 99.9761C6.75011 99.992 6.45 100 6.14881 100C5.84745 100 5.54717 99.992 5.24804 99.976C4.94891 99.992 4.64864 100 4.34728 100C4.04609 100 3.74597 99.992 3.44701 99.9761C3.14804 99.992 2.84793 100 2.54673 100C2.24546 100 1.94526 99.992 1.64622 99.976C1.53812 99.9818 1.42988 99.9865 1.32149 99.9902C3.62034 97.7076 5.74457 94.958 7.65097 91.8162C9.51535 89.8347 11.2518 87.4605 12.8223 84.7355C17.9095 75.9082 21.0961 63.63 21.0961 50C21.0961 36.37 17.9095 24.0918 12.8223 15.2645C10.8632 11.8652 8.64583 9.01185 6.24407 6.78569C14.8042 15.4543 20.5561 31.5616 20.5561 50C20.5561 67.2261 15.5357 82.4176 7.89519 91.4095C9.47523 88.7516 10.9014 85.8211 12.1482 82.6619C16.5744 74.0323 19.2946 62.5931 19.2946 50C19.2946 36.37 16.108 24.0918 11.0207 15.2645C10.584 14.5066 10.1343 13.7758 9.67264 13.0731C6.96172 7.74108 3.68299 3.29453 0 0.0164223C0.2478 0.0055027 0.496379 0 0.745696 0C1.04698 0 1.34713 0.00802994 1.64619 0.0239563C1.94525 0.00802994 2.24545 0 2.54673 0C2.84794 0 3.148 0.0080204 3.44698 0.0239372C3.74596 0.0080204 4.04608 0 4.34728 0C4.64864 0 4.94888 0.00802994 5.24802 0.0239658C5.54716 0.00802994 5.84744 0 6.14881 0C6.45001 0 6.75008 0.0080204 7.04905 0.0239372C7.34803 0.0080204 7.64815 0 7.94935 0C8.25064 0 8.55079 0.00802994 8.84985 0.0239563ZM8.05625 6.79647C16.6105 15.4677 22.3576 31.5693 22.3576 50C22.3576 68.4307 16.6105 84.5323 8.05626 93.2035C10.4535 90.9789 12.6669 88.1293 14.6228 84.7355C19.7101 75.9082 22.8967 63.63 22.8967 50C22.8967 36.37 19.7101 24.0918 14.6228 15.2645C12.6669 11.8707 10.4535 9.02106 8.05625 6.79647ZM16.4239 15.2645C14.4664 11.868 12.251 9.01644 9.85145 6.79106C18.4086 15.461 24.1581 31.5655 24.1581 50C24.1581 68.4345 18.4087 84.539 9.85148 93.2089C12.251 90.9835 14.4664 88.132 16.4239 84.7355C21.5111 75.9082 24.6977 63.63 24.6977 50C24.6977 36.37 21.5111 24.0918 16.4239 15.2645ZM11.6525 6.79107C14.052 9.01645 16.2674 11.868 18.2249 15.2645C23.3121 24.0918 26.4987 36.37 26.4987 50C26.4987 63.63 23.3121 75.9082 18.2249 84.7355C16.2674 88.132 14.052 90.9835 11.6525 93.2089C20.2097 84.539 25.9592 68.4345 25.9592 50C25.9592 31.5655 20.2097 15.461 11.6525 6.79107ZM20.0259 15.2645C18.0684 11.868 15.853 9.01643 13.4535 6.79104C22.0107 15.461 27.7602 31.5655 27.7602 50C27.7602 68.4345 22.0108 84.539 13.4536 93.2089C15.8531 90.9835 18.0685 88.132 20.0259 84.7355C25.1132 75.9082 28.2998 63.63 28.2998 50C28.2998 36.37 25.1132 24.0918 20.0259 15.2645ZM15.2546 6.79108C17.6541 9.01646 19.8695 11.868 21.827 15.2645C26.9142 24.0918 30.1008 36.37 30.1008 50C30.1008 63.63 26.9142 75.9082 21.827 84.7355C19.8695 88.132 17.6541 90.9835 15.2546 93.2089C23.8118 84.5389 29.5612 68.4345 29.5612 50C29.5612 31.5655 23.8118 15.461 15.2546 6.79108ZM23.6275 15.2645C21.6716 11.8708 19.4583 9.02112 17.061 6.79653C25.6152 15.4678 31.3623 31.5694 31.3623 50C31.3623 68.4307 25.6152 84.5322 17.061 93.2035C19.4583 90.9789 21.6716 88.1292 23.6275 84.7355C28.7148 75.9082 31.9014 63.63 31.9014 50C31.9014 36.37 28.7148 24.0918 23.6275 15.2645ZM18.8509 6.78575C21.2526 9.0119 23.47 11.8653 25.4291 15.2645C30.5163 24.0918 33.7029 36.37 33.7029 50C33.7029 63.63 30.5163 75.9082 25.4291 84.7355C23.47 88.1347 21.2526 90.9881 18.8509 93.2142C27.411 84.5456 33.1628 68.4383 33.1628 50C33.1628 31.5617 27.411 15.4544 18.8509 6.78575ZM27.2296 15.2645C25.2737 11.8708 23.0603 9.02112 20.6631 6.79654C29.2173 15.4678 34.9644 31.5693 34.9644 50C34.9644 68.4307 29.2173 84.5323 20.663 93.2035C23.0603 90.9789 25.2737 88.1293 27.2296 84.7355C32.3168 75.9082 35.5034 63.63 35.5034 50C35.5034 36.37 32.3168 24.0918 27.2296 15.2645ZM22.4583 6.79115C31.0155 15.4611 36.7649 31.5655 36.7649 50C36.7649 68.4345 31.0154 84.539 22.4582 93.2089C24.8578 90.9835 27.0732 88.132 29.0306 84.7355C34.1179 75.9082 37.3045 63.63 37.3045 50C37.3045 36.37 34.1179 24.0918 29.0306 15.2645C27.0732 11.868 24.8578 9.01652 22.4583 6.79115ZM30.8317 84.7355C28.8742 88.132 26.6588 90.9835 24.2593 93.2089C32.8165 84.539 38.5659 68.4345 38.5659 50C38.5659 31.5654 32.8165 15.461 24.2593 6.79106C26.6588 9.01644 28.8742 11.868 30.8317 15.2645C35.9189 24.0918 39.1055 36.37 39.1055 50C39.1055 63.63 35.9189 75.9082 30.8317 84.7355Z" fill="url(#paint3_linear_10_871)"/>
<defs>
<linearGradient id="paint0_linear_10_871" x1="48.75" y1="43.5206" x2="51.7144" y2="10.3567" gradientUnits="userSpaceOnUse">
<stop stop-color="white"/>
<stop offset="1" stop-color="white" stop-opacity="0"/>
</linearGradient>
<linearGradient id="paint1_linear_10_871" x1="51.875" y1="58.1193" x2="48.3848" y2="97.165" gradientUnits="userSpaceOnUse">
<stop stop-color="white"/>
<stop offset="1" stop-color="white" stop-opacity="0"/>
</linearGradient>
<linearGradient id="paint2_linear_10_871" x1="58.1191" y1="48.125" x2="92.1589" y2="51.1677" gradientUnits="userSpaceOnUse">
<stop stop-color="white"/>
<stop offset="1" stop-color="white" stop-opacity="0"/>
</linearGradient>
<linearGradient id="paint3_linear_10_871" x1="41.8807" y1="48.125" x2="7.21504" y2="51.2237" gradientUnits="userSpaceOnUse">
<stop stop-color="white"/>
<stop offset="1" stop-color="white" stop-opacity="0"/>
</linearGradient>
</defs>
</svg>
