<svg width="1300" height="400" viewBox="0 0 1300 400" fill="none" xmlns="http://www.w3.org/2000/svg">
<path d="M39 399C50.24 399 883.683 399 1299 399" stroke="white"/>
<path d="M39 42L39 399" stroke="white" stroke-opacity="0.4"/>
<path d="M219 42L219 399" stroke="white" stroke-opacity="0.4"/>
<path d="M399 42L399 399" stroke="white" stroke-opacity="0.4"/>
<path d="M579 42L579 399" stroke="white" stroke-opacity="0.4"/>
<path d="M759 42L759 399" stroke="white" stroke-opacity="0.4"/>
<path d="M939 42L939 399" stroke="white" stroke-opacity="0.4"/>
<path d="M1119 42L1119 399" stroke="white" stroke-opacity="0.4"/>
<path d="M1299 42L1299 399" stroke="white" stroke-opacity="0.4"/>
<path opacity="0.4" d="M42 42L42 400" stroke="white" stroke-dasharray="2 2"/>
<path opacity="0.4" d="M200 235L200 400" stroke="white" stroke-dasharray="2 2"/>
<path opacity="0.4" d="M260 235L260 400" stroke="white" stroke-dasharray="2 2"/>
<path opacity="0.4" d="M871 343L871 400" stroke="white" stroke-dasharray="2 2"/>
<path opacity="0.4" d="M1290 344L1290 400" stroke="white" stroke-dasharray="2 2"/>
<path opacity="0.4" d="M342 273L342 400" stroke="white" stroke-dasharray="2 2"/>
<path opacity="0.4" d="M704 273L704 400" stroke="white" stroke-dasharray="2 2"/>
<circle cx="42" cy="42" r="42" fill="white" fill-opacity="0.2"/>
<circle cx="42" cy="42" r="17" fill="white" fill-opacity="0.3"/>
<circle cx="42" cy="42" r="5" fill="white"/>
<rect x="210" y="245" width="66" height="36" rx="6" fill="white" fill-opacity="0.6"/>
<path d="M221.44 268H222.768V258.192L228.544 268H230.144V256.56H228.816V266.016L223.248 256.56H221.44V268ZM237.53 268H238.922V263.024L242.538 256.56H241.146L238.266 261.872L235.274 256.56H233.706L237.53 263.008V268ZM249.39 268.144C251.662 268.144 253.342 266.688 253.342 264.768C253.342 262.608 251.998 261.84 249.454 261.44C247.118 261.088 246.702 260.512 246.702 259.392C246.702 258.32 247.518 257.536 249.086 257.536C250.67 257.536 251.502 258.128 251.774 259.568H253.022C252.798 257.536 251.374 256.416 249.086 256.416C246.926 256.416 245.406 257.76 245.406 259.52C245.406 261.552 246.83 262.304 249.23 262.672C251.406 263.024 251.998 263.568 251.998 264.864C251.998 266.16 250.862 267.024 249.39 267.024C247.086 267.024 246.542 265.872 246.366 264.512H245.022C245.23 266.464 246.334 268.144 249.39 268.144ZM257.486 268H264.446V266.864H258.878V262.72H263.134V261.584H258.878V257.696H264.158V256.56H257.486V268Z" fill="#090C10"/>
<rect x="352" y="283" width="69" height="36" rx="6" fill="white" fill-opacity="0.6"/>
<path d="M363.44 306H370.064V304.864H364.832V294.56H363.44V306ZM373.763 306H375.043V296.368L378.963 306H379.395L383.187 296.368V306H384.579V294.56H382.659L379.235 303.472L375.699 294.56H373.763V306ZM388.362 306H389.674L390.778 302.704H395.498L396.618 306H397.994L394.122 294.56H392.298L388.362 306ZM393.146 295.712L395.13 301.6H391.162L393.146 295.712ZM400.891 306H402.283L405.339 301.184L408.395 306H409.963L406.235 300.128L409.787 294.56H408.363L405.531 299.056L402.683 294.56H401.147L404.667 300.128L400.891 306Z" fill="#090C10"/>
<rect x="881" y="353" width="100" height="36" rx="6" fill="white" fill-opacity="0.6"/>
<path d="M892.44 376H896.36C898.648 376 900.12 374.96 900.12 372.8V372.736C900.12 371.248 899.496 370.4 897.832 370C899.144 369.552 899.56 368.624 899.56 367.584V367.52C899.56 365.264 898.008 364.56 895.88 364.56H892.44V376ZM893.8 374.912V370.64H896.136C897.976 370.64 898.76 371.312 898.76 372.72V372.784C898.76 374.176 897.992 374.912 896.328 374.912H893.8ZM893.8 369.552V365.648H895.848C897.448 365.648 898.2 366.176 898.2 367.472V367.536C898.2 368.944 897.56 369.552 895.88 369.552H893.8ZM904.233 376H905.625V364.56H904.233V376ZM910.351 376H911.679V366.192L917.455 376H919.055V364.56H917.727V374.016L912.159 364.56H910.351V376ZM922.825 376H924.137L925.241 372.704H929.961L931.081 376H932.457L928.585 364.56H926.761L922.825 376ZM927.609 365.712L929.593 371.6H925.625L927.609 365.712ZM936.23 376H937.558V366.192L943.334 376H944.934V364.56H943.606V374.016L938.038 364.56H936.23V376ZM954.352 376.144C956.912 376.144 958.736 374.848 959.136 372.208H957.84C957.552 374.064 956.256 375.008 954.384 375.008C951.92 375.008 950.448 373.248 950.448 370.336V370.208C950.448 367.328 952.032 365.488 954.4 365.488C956.352 365.488 957.36 366.384 957.648 368.128H959.024C958.784 365.648 956.768 364.384 954.384 364.384C951.28 364.384 949.008 366.832 949.008 370.224V370.352C949.008 373.872 951.04 376.144 954.352 376.144ZM963.016 376H969.976V374.864H964.408V370.72H968.664V369.584H964.408V365.696H969.688V364.56H963.016V376Z" fill="#090C10"/>
<rect opacity="0.3" x="199" y="225" width="62" height="10" rx="2" fill="white"/>
<rect opacity="0.3" x="870" y="333" width="420" height="10" rx="2" fill="white"/>
<rect opacity="0.3" x="341" y="263" width="364" height="10" rx="2" fill="white"/>
<path fill-rule="evenodd" clip-rule="evenodd" d="M52.599 90C50.059 90 48 92.059 48 94.599V107.752C48 110.292 50.059 112.351 52.599 112.351H65.752C68.292 112.351 70.351 110.292 70.351 107.752V94.599C70.351 92.059 68.292 90 65.752 90H52.599ZM51.1921 93.5917C51.4125 93.5917 51.5912 93.413 51.5912 93.1926C51.5912 92.9722 51.4125 92.7935 51.1921 92.7935C50.9717 92.7935 50.793 92.9722 50.793 93.1926C50.793 93.413 50.9717 93.5917 51.1921 93.5917ZM51.1921 96.7847C51.4125 96.7847 51.5912 96.606 51.5912 96.3856C51.5912 96.1652 51.4125 95.9865 51.1921 95.9865C50.9717 95.9865 50.793 96.1652 50.793 96.3856C50.793 96.606 50.9717 96.7847 51.1921 96.7847ZM51.5912 99.5786C51.5912 99.799 51.4125 99.9777 51.1921 99.9777C50.9717 99.9777 50.793 99.799 50.793 99.5786C50.793 99.3582 50.9717 99.1795 51.1921 99.1795C51.4125 99.1795 51.5912 99.3582 51.5912 99.5786ZM51.1921 103.171C51.4125 103.171 51.5912 102.992 51.5912 102.772C51.5912 102.551 51.4125 102.372 51.1921 102.372C50.9717 102.372 50.793 102.551 50.793 102.772C50.793 102.992 50.9717 103.171 51.1921 103.171ZM51.5912 105.965C51.5912 106.185 51.4125 106.364 51.1921 106.364C50.9717 106.364 50.793 106.185 50.793 105.965C50.793 105.744 50.9717 105.565 51.1921 105.565C51.4125 105.565 51.5912 105.744 51.5912 105.965ZM51.1921 109.557C51.4125 109.557 51.5912 109.378 51.5912 109.158C51.5912 108.937 51.4125 108.758 51.1921 108.758C50.9717 108.758 50.793 108.937 50.793 109.158C50.793 109.378 50.9717 109.557 51.1921 109.557ZM54.7842 93.1926C54.7842 93.413 54.6055 93.5917 54.3851 93.5917C54.1647 93.5917 53.986 93.413 53.986 93.1926C53.986 92.9722 54.1647 92.7935 54.3851 92.7935C54.6055 92.7935 54.7842 92.9722 54.7842 93.1926ZM54.3851 97.5031C55.0023 97.5031 55.5026 97.0028 55.5026 96.3856C55.5026 95.7684 55.0023 95.268 54.3851 95.268C53.7679 95.268 53.2675 95.7684 53.2675 96.3856C53.2675 97.0028 53.7679 97.5031 54.3851 97.5031ZM55.5026 99.5786C55.5026 100.196 55.0023 100.696 54.3851 100.696C53.7679 100.696 53.2675 100.196 53.2675 99.5786C53.2675 98.9614 53.7679 98.461 54.3851 98.461C55.0023 98.461 55.5026 98.9614 55.5026 99.5786ZM54.3851 103.889C55.0023 103.889 55.5026 103.389 55.5026 102.772C55.5026 102.154 55.0023 101.654 54.3851 101.654C53.7679 101.654 53.2675 102.154 53.2675 102.772C53.2675 103.389 53.7679 103.889 54.3851 103.889ZM55.5026 105.965C55.5026 106.582 55.0023 107.082 54.3851 107.082C53.7679 107.082 53.2675 106.582 53.2675 105.965C53.2675 105.347 53.7679 104.847 54.3851 104.847C55.0023 104.847 55.5026 105.347 55.5026 105.965ZM54.3851 109.557C54.6055 109.557 54.7842 109.378 54.7842 109.158C54.7842 108.937 54.6055 108.758 54.3851 108.758C54.1647 108.758 53.986 108.937 53.986 109.158C53.986 109.378 54.1647 109.557 54.3851 109.557ZM57.9772 93.1926C57.9772 93.413 57.7985 93.5917 57.5781 93.5917C57.3577 93.5917 57.179 93.413 57.179 93.1926C57.179 92.9722 57.3577 92.7935 57.5781 92.7935C57.7985 92.7935 57.9772 92.9722 57.9772 93.1926ZM57.5781 97.5031C58.1953 97.5031 58.6956 97.0028 58.6956 96.3856C58.6956 95.7684 58.1953 95.268 57.5781 95.268C56.9609 95.268 56.4605 95.7684 56.4605 96.3856C56.4605 97.0028 56.9609 97.5031 57.5781 97.5031ZM57.9772 99.5786C57.9772 99.799 57.7985 99.9777 57.5781 99.9777C57.3577 99.9777 57.179 99.799 57.179 99.5786C57.179 99.3582 57.3577 99.1795 57.5781 99.1795C57.7985 99.1795 57.9772 99.3582 57.9772 99.5786ZM57.5781 103.171C57.7985 103.171 57.9772 102.992 57.9772 102.772C57.9772 102.551 57.7985 102.372 57.5781 102.372C57.3577 102.372 57.179 102.551 57.179 102.772C57.179 102.992 57.3577 103.171 57.5781 103.171ZM58.6956 105.965C58.6956 106.582 58.1953 107.082 57.5781 107.082C56.9609 107.082 56.4605 106.582 56.4605 105.965C56.4605 105.347 56.9609 104.847 57.5781 104.847C58.1953 104.847 58.6956 105.347 58.6956 105.965ZM57.5781 109.557C57.7985 109.557 57.9772 109.378 57.9772 109.158C57.9772 108.937 57.7985 108.758 57.5781 108.758C57.3577 108.758 57.179 108.937 57.179 109.158C57.179 109.378 57.3577 109.557 57.5781 109.557ZM61.1702 93.1926C61.1702 93.413 60.9915 93.5917 60.7711 93.5917C60.5507 93.5917 60.372 93.413 60.372 93.1926C60.372 92.9722 60.5507 92.7935 60.7711 92.7935C60.9915 92.7935 61.1702 92.9722 61.1702 93.1926ZM60.7711 97.5031C61.3883 97.5031 61.8886 97.0028 61.8886 96.3856C61.8886 95.7684 61.3883 95.268 60.7711 95.268C60.1539 95.268 59.6535 95.7684 59.6535 96.3856C59.6535 97.0028 60.1539 97.5031 60.7711 97.5031ZM61.1702 99.5786C61.1702 99.799 60.9915 99.9777 60.7711 99.9777C60.5507 99.9777 60.372 99.799 60.372 99.5786C60.372 99.3582 60.5507 99.1795 60.7711 99.1795C60.9915 99.1795 61.1702 99.3582 61.1702 99.5786ZM60.7711 103.171C60.9915 103.171 61.1702 102.992 61.1702 102.772C61.1702 102.551 60.9915 102.372 60.7711 102.372C60.5507 102.372 60.372 102.551 60.372 102.772C60.372 102.992 60.5507 103.171 60.7711 103.171ZM61.8886 105.965C61.8886 106.582 61.3883 107.082 60.7711 107.082C60.1539 107.082 59.6535 106.582 59.6535 105.965C59.6535 105.347 60.1539 104.847 60.7711 104.847C61.3883 104.847 61.8886 105.347 61.8886 105.965ZM60.7711 109.557C60.9915 109.557 61.1702 109.378 61.1702 109.158C61.1702 108.937 60.9915 108.758 60.7711 108.758C60.5507 108.758 60.372 108.937 60.372 109.158C60.372 109.378 60.5507 109.557 60.7711 109.557ZM64.3632 93.1926C64.3632 93.413 64.1845 93.5917 63.9641 93.5917C63.7437 93.5917 63.565 93.413 63.565 93.1926C63.565 92.9722 63.7437 92.7935 63.9641 92.7935C64.1845 92.7935 64.3632 92.9722 64.3632 93.1926ZM63.9641 96.7847C64.1845 96.7847 64.3632 96.606 64.3632 96.3856C64.3632 96.1652 64.1845 95.9865 63.9641 95.9865C63.7437 95.9865 63.565 96.1652 63.565 96.3856C63.565 96.606 63.7437 96.7847 63.9641 96.7847ZM65.0816 99.5786C65.0816 100.196 64.5813 100.696 63.9641 100.696C63.3469 100.696 62.8465 100.196 62.8465 99.5786C62.8465 98.9614 63.3469 98.461 63.9641 98.461C64.5813 98.461 65.0816 98.9614 65.0816 99.5786ZM63.9641 103.889C64.5813 103.889 65.0816 103.389 65.0816 102.772C65.0816 102.154 64.5813 101.654 63.9641 101.654C63.3469 101.654 62.8465 102.154 62.8465 102.772C62.8465 103.389 63.3469 103.889 63.9641 103.889ZM64.3632 105.965C64.3632 106.185 64.1845 106.364 63.9641 106.364C63.7437 106.364 63.565 106.185 63.565 105.965C63.565 105.744 63.7437 105.565 63.9641 105.565C64.1845 105.565 64.3632 105.744 64.3632 105.965ZM63.9641 109.557C64.1845 109.557 64.3632 109.378 64.3632 109.158C64.3632 108.937 64.1845 108.758 63.9641 108.758C63.7437 108.758 63.565 108.937 63.565 109.158C63.565 109.378 63.7437 109.557 63.9641 109.557ZM67.5562 93.1926C67.5562 93.413 67.3775 93.5917 67.1571 93.5917C66.9367 93.5917 66.758 93.413 66.758 93.1926C66.758 92.9722 66.9367 92.7935 67.1571 92.7935C67.3775 92.7935 67.5562 92.9722 67.5562 93.1926ZM67.1571 96.7847C67.3775 96.7847 67.5562 96.606 67.5562 96.3856C67.5562 96.1652 67.3775 95.9865 67.1571 95.9865C66.9367 95.9865 66.758 96.1652 66.758 96.3856C66.758 96.606 66.9367 96.7847 67.1571 96.7847ZM67.5562 99.5786C67.5562 99.799 67.3775 99.9777 67.1571 99.9777C66.9367 99.9777 66.758 99.799 66.758 99.5786C66.758 99.3582 66.9367 99.1795 67.1571 99.1795C67.3775 99.1795 67.5562 99.3582 67.5562 99.5786ZM67.1571 103.171C67.3775 103.171 67.5562 102.992 67.5562 102.772C67.5562 102.551 67.3775 102.372 67.1571 102.372C66.9367 102.372 66.758 102.551 66.758 102.772C66.758 102.992 66.9367 103.171 67.1571 103.171ZM67.5562 105.965C67.5562 106.185 67.3775 106.364 67.1571 106.364C66.9367 106.364 66.758 106.185 66.758 105.965C66.758 105.744 66.9367 105.565 67.1571 105.565C67.3775 105.565 67.5562 105.744 67.5562 105.965ZM67.1571 109.557C67.3775 109.557 67.5562 109.378 67.5562 109.158C67.5562 108.937 67.3775 108.758 67.1571 108.758C66.9367 108.758 66.758 108.937 66.758 109.158C66.758 109.378 66.9367 109.557 67.1571 109.557Z" fill="white"/>
<path d="M79.6191 107.301H84.2184C88.0714 107.301 90.2929 104.747 90.2929 101.308C90.2929 97.7117 88.1408 95.1408 84.2184 95.1408H79.6191V107.301ZM81.5283 96.8779H84.2184C86.9433 96.8779 88.3838 98.754 88.3838 101.308C88.3838 103.618 86.9086 105.563 84.2184 105.563H81.5283V96.8779Z" fill="white"/>
<path d="M92.2631 107.301H94.1722V95.1408H92.2631V107.301Z" fill="white"/>
<path d="M102.137 107.474C104.202 107.474 105.677 106.554 106.545 104.712V107.301H108.177V100.873H100.575V102.697H105.834C105.591 104.035 104.463 105.65 102.31 105.65C99.9501 105.65 98.1451 103.809 98.1451 101.221C98.1451 98.5803 100.002 96.791 102.276 96.791C104.341 96.791 105.764 97.7986 106.181 99.831L108.09 99.223C107.76 97.9549 107.101 96.93 106.094 96.1483C105.105 95.3666 103.803 94.9671 102.224 94.9671C98.8046 94.8976 96.0971 97.7291 96.1491 101.221C96.0971 104.816 98.7178 107.526 102.137 107.474Z" fill="white"/>
<path d="M110.398 107.301H112.308V95.1408H110.398V107.301Z" fill="white"/>
<path d="M124.802 95.1408H114.042V96.9648H118.467V107.301H120.376V96.9648H124.802V95.1408Z" fill="white"/>
<path d="M123.408 107.301H125.56L126.723 104.347H132.728L133.891 107.301H136.043L131.044 95.1408H128.406L123.408 107.301ZM127.4 102.61L129.725 96.7216L132.051 102.61H127.4Z" fill="white"/>
<path d="M137.5 95.1408V107.301H146.698V105.477H139.409V95.1408H137.5Z" fill="white"/>
<path d="M154.714 102.437H158.445C160.962 102.437 162.351 100.682 162.351 98.7887C162.351 96.8258 160.979 95.1408 158.445 95.1408H152.805V107.301H154.714V102.437ZM154.714 100.613V96.9648H158.272C159.504 96.9648 160.355 97.677 160.355 98.7887C160.355 99.9005 159.504 100.613 158.272 100.613H154.714Z" fill="white"/>
<path d="M174.17 107.301V107.023C173.927 106.762 173.771 106.449 173.701 106.119C173.649 105.772 173.597 105.251 173.563 104.539C173.493 102.993 172.834 102.124 171.653 101.655C173.181 101.116 174.083 99.9873 174.083 98.4413C174.083 96.5826 172.625 95.1408 170.178 95.1408H164.364V107.301H166.273V102.263H169.224C170.629 102.263 171.393 102.836 171.393 104.521C171.393 105.32 171.428 105.911 171.497 106.293C171.567 106.658 171.671 107.005 171.827 107.301H174.17ZM166.273 100.439V96.9648H170.005C171.324 96.9648 172.087 97.5901 172.087 98.7019C172.087 99.8136 171.324 100.439 170.005 100.439H166.273Z" fill="white"/>
<path d="M176.177 107.301H178.087V95.1408H176.177V107.301Z" fill="white"/>
<path d="M194.469 107.301V95.1408H190.911L187.527 105.824L184.142 95.1408H180.584V107.301H182.493V96.2004L186.051 107.301H189.002L192.56 96.2004V107.301H194.469Z" fill="white"/>
<path d="M196.974 95.1408V107.301H205.999V105.477H198.883V101.916H205.305V100.092H198.883V96.9648H205.825V95.1408H196.974Z" fill="white"/>
</svg>
