<svg width="778" height="114" viewBox="0 0 778 114" fill="none" xmlns="http://www.w3.org/2000/svg">
<path fill-rule="evenodd" clip-rule="evenodd" d="M23.4568 0C10.502 0 0 10.502 0 23.4568V90.5432C0 103.498 10.502 114 23.4568 114H90.5432C103.498 114 114 103.498 114 90.5432V23.4568C114 10.502 103.498 0 90.5432 0H23.4568ZM16.2857 18.3214C17.41 18.3214 18.3214 17.41 18.3214 16.2857C18.3214 15.1614 17.41 14.25 16.2857 14.25C15.1614 14.25 14.25 15.1614 14.25 16.2857C14.25 17.41 15.1614 18.3214 16.2857 18.3214ZM16.2857 34.6071C17.41 34.6071 18.3214 33.6957 18.3214 32.5714C18.3214 31.4471 17.41 30.5357 16.2857 30.5357C15.1614 30.5357 14.25 31.4471 14.25 32.5714C14.25 33.6957 15.1614 34.6071 16.2857 34.6071ZM18.3214 48.8571C18.3214 49.9814 17.41 50.8929 16.2857 50.8929C15.1614 50.8929 14.25 49.9814 14.25 48.8571C14.25 47.7328 15.1614 46.8214 16.2857 46.8214C17.41 46.8214 18.3214 47.7328 18.3214 48.8571ZM16.2857 67.1786C17.41 67.1786 18.3214 66.2672 18.3214 65.1429C18.3214 64.0186 17.41 63.1071 16.2857 63.1071C15.1614 63.1071 14.25 64.0186 14.25 65.1429C14.25 66.2672 15.1614 67.1786 16.2857 67.1786ZM18.3214 81.4286C18.3214 82.5529 17.41 83.4643 16.2857 83.4643C15.1614 83.4643 14.25 82.5529 14.25 81.4286C14.25 80.3043 15.1614 79.3929 16.2857 79.3929C17.41 79.3929 18.3214 80.3043 18.3214 81.4286ZM16.2857 99.75C17.41 99.75 18.3214 98.8386 18.3214 97.7143C18.3214 96.59 17.41 95.6786 16.2857 95.6786C15.1614 95.6786 14.25 96.59 14.25 97.7143C14.25 98.8386 15.1614 99.75 16.2857 99.75ZM34.6071 16.2857C34.6071 17.41 33.6957 18.3214 32.5714 18.3214C31.4471 18.3214 30.5357 17.41 30.5357 16.2857C30.5357 15.1614 31.4471 14.25 32.5714 14.25C33.6957 14.25 34.6071 15.1614 34.6071 16.2857ZM32.5714 38.2714C35.7195 38.2714 38.2714 35.7195 38.2714 32.5714C38.2714 29.4234 35.7195 26.8714 32.5714 26.8714C29.4234 26.8714 26.8714 29.4234 26.8714 32.5714C26.8714 35.7195 29.4234 38.2714 32.5714 38.2714ZM38.2714 48.8571C38.2714 52.0052 35.7195 54.5571 32.5714 54.5571C29.4234 54.5571 26.8714 52.0052 26.8714 48.8571C26.8714 45.7091 29.4234 43.1571 32.5714 43.1571C35.7195 43.1571 38.2714 45.7091 38.2714 48.8571ZM32.5714 70.8429C35.7195 70.8429 38.2714 68.2909 38.2714 65.1429C38.2714 61.9948 35.7195 59.4429 32.5714 59.4429C29.4234 59.4429 26.8714 61.9948 26.8714 65.1429C26.8714 68.2909 29.4234 70.8429 32.5714 70.8429ZM38.2714 81.4286C38.2714 84.5766 35.7195 87.1286 32.5714 87.1286C29.4234 87.1286 26.8714 84.5766 26.8714 81.4286C26.8714 78.2805 29.4234 75.7286 32.5714 75.7286C35.7195 75.7286 38.2714 78.2805 38.2714 81.4286ZM32.5714 99.75C33.6957 99.75 34.6071 98.8386 34.6071 97.7143C34.6071 96.59 33.6957 95.6786 32.5714 95.6786C31.4471 95.6786 30.5357 96.59 30.5357 97.7143C30.5357 98.8386 31.4471 99.75 32.5714 99.75ZM50.8929 16.2857C50.8929 17.41 49.9814 18.3214 48.8571 18.3214C47.7328 18.3214 46.8214 17.41 46.8214 16.2857C46.8214 15.1614 47.7328 14.25 48.8571 14.25C49.9814 14.25 50.8929 15.1614 50.8929 16.2857ZM48.8571 38.2714C52.0052 38.2714 54.5571 35.7195 54.5571 32.5714C54.5571 29.4234 52.0052 26.8714 48.8571 26.8714C45.7091 26.8714 43.1571 29.4234 43.1571 32.5714C43.1571 35.7195 45.7091 38.2714 48.8571 38.2714ZM50.8929 48.8571C50.8929 49.9814 49.9814 50.8929 48.8571 50.8929C47.7328 50.8929 46.8214 49.9814 46.8214 48.8571C46.8214 47.7328 47.7328 46.8214 48.8571 46.8214C49.9814 46.8214 50.8929 47.7328 50.8929 48.8571ZM48.8571 67.1786C49.9814 67.1786 50.8929 66.2672 50.8929 65.1429C50.8929 64.0186 49.9814 63.1071 48.8571 63.1071C47.7328 63.1071 46.8214 64.0186 46.8214 65.1429C46.8214 66.2672 47.7328 67.1786 48.8571 67.1786ZM54.5571 81.4286C54.5571 84.5766 52.0052 87.1286 48.8571 87.1286C45.7091 87.1286 43.1571 84.5766 43.1571 81.4286C43.1571 78.2805 45.7091 75.7286 48.8571 75.7286C52.0052 75.7286 54.5571 78.2805 54.5571 81.4286ZM48.8571 99.75C49.9814 99.75 50.8929 98.8386 50.8929 97.7143C50.8929 96.59 49.9814 95.6786 48.8571 95.6786C47.7328 95.6786 46.8214 96.59 46.8214 97.7143C46.8214 98.8386 47.7328 99.75 48.8571 99.75ZM67.1786 16.2857C67.1786 17.41 66.2672 18.3214 65.1429 18.3214C64.0186 18.3214 63.1071 17.41 63.1071 16.2857C63.1071 15.1614 64.0186 14.25 65.1429 14.25C66.2672 14.25 67.1786 15.1614 67.1786 16.2857ZM65.1429 38.2714C68.2909 38.2714 70.8429 35.7195 70.8429 32.5714C70.8429 29.4234 68.2909 26.8714 65.1429 26.8714C61.9948 26.8714 59.4429 29.4234 59.4429 32.5714C59.4429 35.7195 61.9948 38.2714 65.1429 38.2714ZM67.1786 48.8571C67.1786 49.9814 66.2672 50.8929 65.1429 50.8929C64.0186 50.8929 63.1071 49.9814 63.1071 48.8571C63.1071 47.7328 64.0186 46.8214 65.1429 46.8214C66.2672 46.8214 67.1786 47.7328 67.1786 48.8571ZM65.1429 67.1786C66.2672 67.1786 67.1786 66.2672 67.1786 65.1429C67.1786 64.0186 66.2672 63.1071 65.1429 63.1071C64.0186 63.1071 63.1071 64.0186 63.1071 65.1429C63.1071 66.2672 64.0186 67.1786 65.1429 67.1786ZM70.8429 81.4286C70.8429 84.5766 68.2909 87.1286 65.1429 87.1286C61.9948 87.1286 59.4429 84.5766 59.4429 81.4286C59.4429 78.2805 61.9948 75.7286 65.1429 75.7286C68.2909 75.7286 70.8429 78.2805 70.8429 81.4286ZM65.1429 99.75C66.2672 99.75 67.1786 98.8386 67.1786 97.7143C67.1786 96.59 66.2672 95.6786 65.1429 95.6786C64.0186 95.6786 63.1071 96.59 63.1071 97.7143C63.1071 98.8386 64.0186 99.75 65.1429 99.75ZM83.4643 16.2857C83.4643 17.41 82.5529 18.3214 81.4286 18.3214C80.3043 18.3214 79.3929 17.41 79.3929 16.2857C79.3929 15.1614 80.3043 14.25 81.4286 14.25C82.5529 14.25 83.4643 15.1614 83.4643 16.2857ZM81.4286 34.6071C82.5529 34.6071 83.4643 33.6957 83.4643 32.5714C83.4643 31.4471 82.5529 30.5357 81.4286 30.5357C80.3043 30.5357 79.3929 31.4471 79.3929 32.5714C79.3929 33.6957 80.3043 34.6071 81.4286 34.6071ZM87.1286 48.8571C87.1286 52.0052 84.5766 54.5571 81.4286 54.5571C78.2805 54.5571 75.7286 52.0052 75.7286 48.8571C75.7286 45.7091 78.2805 43.1571 81.4286 43.1571C84.5766 43.1571 87.1286 45.7091 87.1286 48.8571ZM81.4286 70.8429C84.5766 70.8429 87.1286 68.2909 87.1286 65.1429C87.1286 61.9948 84.5766 59.4429 81.4286 59.4429C78.2805 59.4429 75.7286 61.9948 75.7286 65.1429C75.7286 68.2909 78.2805 70.8429 81.4286 70.8429ZM83.4643 81.4286C83.4643 82.5529 82.5529 83.4643 81.4286 83.4643C80.3043 83.4643 79.3929 82.5529 79.3929 81.4286C79.3929 80.3043 80.3043 79.3929 81.4286 79.3929C82.5529 79.3929 83.4643 80.3043 83.4643 81.4286ZM81.4286 99.75C82.5529 99.75 83.4643 98.8386 83.4643 97.7143C83.4643 96.59 82.5529 95.6786 81.4286 95.6786C80.3043 95.6786 79.3929 96.59 79.3929 97.7143C79.3929 98.8386 80.3043 99.75 81.4286 99.75ZM99.75 16.2857C99.75 17.41 98.8386 18.3214 97.7143 18.3214C96.59 18.3214 95.6786 17.41 95.6786 16.2857C95.6786 15.1614 96.59 14.25 97.7143 14.25C98.8386 14.25 99.75 15.1614 99.75 16.2857ZM97.7143 34.6071C98.8386 34.6071 99.75 33.6957 99.75 32.5714C99.75 31.4471 98.8386 30.5357 97.7143 30.5357C96.59 30.5357 95.6786 31.4471 95.6786 32.5714C95.6786 33.6957 96.59 34.6071 97.7143 34.6071ZM99.75 48.8571C99.75 49.9814 98.8386 50.8929 97.7143 50.8929C96.59 50.8929 95.6786 49.9814 95.6786 48.8571C95.6786 47.7328 96.59 46.8214 97.7143 46.8214C98.8386 46.8214 99.75 47.7328 99.75 48.8571ZM97.7143 67.1786C98.8386 67.1786 99.75 66.2672 99.75 65.1429C99.75 64.0186 98.8386 63.1071 97.7143 63.1071C96.59 63.1071 95.6786 64.0186 95.6786 65.1429C95.6786 66.2672 96.59 67.1786 97.7143 67.1786ZM99.75 81.4286C99.75 82.5529 98.8386 83.4643 97.7143 83.4643C96.59 83.4643 95.6786 82.5529 95.6786 81.4286C95.6786 80.3043 96.59 79.3929 97.7143 79.3929C98.8386 79.3929 99.75 80.3043 99.75 81.4286ZM97.7143 99.75C98.8386 99.75 99.75 98.8386 99.75 97.7143C99.75 96.59 98.8386 95.6786 97.7143 95.6786C96.59 95.6786 95.6786 96.59 95.6786 97.7143C95.6786 98.8386 96.59 99.75 97.7143 99.75Z" fill="white"/>
<path d="M132.774 88.2398H156.233C175.885 88.2398 187.215 75.2156 187.215 57.6727C187.215 39.3324 176.239 26.2195 156.233 26.2195H132.774V88.2398ZM142.512 35.0796H156.233C170.131 35.0796 177.478 44.6484 177.478 57.6727C177.478 69.4565 169.954 79.3798 156.233 79.3798H142.512V35.0796Z" fill="white"/>
<path d="M197.264 88.2398H207.002V26.2195H197.264V88.2398Z" fill="white"/>
<path d="M247.625 89.1258C258.159 89.1258 265.683 84.43 270.109 75.0384V88.2398H278.431V55.4577H239.658V64.7607H266.48C265.241 71.583 259.487 79.8228 248.51 79.8228C236.471 79.8228 227.265 70.4311 227.265 57.2297C227.265 43.7624 236.737 34.6366 248.333 34.6366C258.867 34.6366 266.126 39.7754 268.25 50.1417L277.988 47.0406C276.306 40.5728 272.942 35.3454 267.808 31.3584C262.762 27.3713 256.123 25.3335 248.067 25.3335C230.629 24.9791 216.819 39.421 217.085 57.2297C216.819 75.57 230.186 89.3916 247.625 89.1258Z" fill="white"/>
<path d="M289.763 88.2398H299.5V26.2195H289.763V88.2398Z" fill="white"/>
<path d="M363.228 26.2195H308.344V35.5226H330.917V88.2398H340.655V35.5226H363.228V26.2195Z" fill="white"/>
<path d="M356.116 88.2398H367.093L373.024 73.1778H403.653L409.583 88.2398H420.56L395.066 26.2195H381.611L356.116 88.2398ZM376.476 64.3177L388.338 34.2822L400.2 64.3177H376.476Z" fill="white"/>
<path d="M427.992 26.2195V88.2398H474.909V78.9368H437.729V26.2195H427.992Z" fill="white"/>
<path d="M515.791 63.4317H534.823C547.659 63.4317 554.741 54.4831 554.741 44.8256C554.741 34.8138 547.748 26.2195 534.823 26.2195H506.054V88.2398H515.791V63.4317ZM515.791 54.1287V35.5226H533.938C540.223 35.5226 544.561 39.1552 544.561 44.8256C544.561 50.4961 540.223 54.1287 533.938 54.1287H515.791Z" fill="white"/>
<path d="M615.026 88.2398V86.8222C613.787 85.4932 612.99 83.8984 612.636 82.215C612.37 80.443 612.105 77.785 611.928 74.1524C611.573 66.2669 608.21 61.8369 602.19 59.4447C609.98 56.6981 614.583 50.9391 614.583 43.0536C614.583 33.5734 607.147 26.2195 594.666 26.2195H565.011V88.2398H574.748V62.5457H589.797C596.967 62.5457 600.862 65.4695 600.862 74.0638C600.862 78.1394 601.039 81.1518 601.393 83.101C601.748 84.9616 602.279 86.7336 603.075 88.2398H615.026ZM574.748 53.2427V35.5226H593.781C600.508 35.5226 604.403 38.7122 604.403 44.3826C604.403 50.0531 600.508 53.2427 593.781 53.2427H574.748Z" fill="white"/>
<path d="M625.265 88.2398H635.002V26.2195H625.265V88.2398Z" fill="white"/>
<path d="M718.559 88.2398V26.2195H700.412L683.15 80.7088L665.888 26.2195H647.741V88.2398H657.478V31.6242L675.625 88.2398H690.674L708.821 31.6242V88.2398H718.559Z" fill="white"/>
<path d="M731.336 26.2195V88.2398H777.367V78.9368H741.073V60.7737H773.826V51.4707H741.073V35.5226H776.482V26.2195H731.336Z" fill="white"/>
</svg>
