<svg width="115" height="114" viewBox="0 0 115 114" fill="none" xmlns="http://www.w3.org/2000/svg">
<path fill-rule="evenodd" clip-rule="evenodd" d="M23.8748 0C10.9199 0 0.417969 10.502 0.417969 23.4568V90.5432C0.417969 103.498 10.9199 114 23.8748 114H90.9612C103.916 114 114.418 103.498 114.418 90.5432V23.4568C114.418 10.502 103.916 0 90.9612 0H23.8748ZM16.7037 18.3214C17.828 18.3214 18.7394 17.41 18.7394 16.2857C18.7394 15.1614 17.828 14.25 16.7037 14.25C15.5794 14.25 14.668 15.1614 14.668 16.2857C14.668 17.41 15.5794 18.3214 16.7037 18.3214ZM16.7037 34.6071C17.828 34.6071 18.7394 33.6957 18.7394 32.5714C18.7394 31.4471 17.828 30.5357 16.7037 30.5357C15.5794 30.5357 14.668 31.4471 14.668 32.5714C14.668 33.6957 15.5794 34.6071 16.7037 34.6071ZM18.7394 48.8571C18.7394 49.9814 17.828 50.8929 16.7037 50.8929C15.5794 50.8929 14.668 49.9814 14.668 48.8571C14.668 47.7328 15.5794 46.8214 16.7037 46.8214C17.828 46.8214 18.7394 47.7328 18.7394 48.8571ZM16.7037 67.1786C17.828 67.1786 18.7394 66.2672 18.7394 65.1429C18.7394 64.0186 17.828 63.1071 16.7037 63.1071C15.5794 63.1071 14.668 64.0186 14.668 65.1429C14.668 66.2672 15.5794 67.1786 16.7037 67.1786ZM18.7394 81.4286C18.7394 82.5529 17.828 83.4643 16.7037 83.4643C15.5794 83.4643 14.668 82.5529 14.668 81.4286C14.668 80.3043 15.5794 79.3929 16.7037 79.3929C17.828 79.3929 18.7394 80.3043 18.7394 81.4286ZM16.7037 99.75C17.828 99.75 18.7394 98.8386 18.7394 97.7143C18.7394 96.59 17.828 95.6786 16.7037 95.6786C15.5794 95.6786 14.668 96.59 14.668 97.7143C14.668 98.8386 15.5794 99.75 16.7037 99.75ZM35.0251 16.2857C35.0251 17.41 34.1137 18.3214 32.9894 18.3214C31.8651 18.3214 30.9537 17.41 30.9537 16.2857C30.9537 15.1614 31.8651 14.25 32.9894 14.25C34.1137 14.25 35.0251 15.1614 35.0251 16.2857ZM32.9894 38.2714C36.1374 38.2714 38.6894 35.7195 38.6894 32.5714C38.6894 29.4234 36.1374 26.8714 32.9894 26.8714C29.8414 26.8714 27.2894 29.4234 27.2894 32.5714C27.2894 35.7195 29.8414 38.2714 32.9894 38.2714ZM38.6894 48.8571C38.6894 52.0052 36.1374 54.5571 32.9894 54.5571C29.8414 54.5571 27.2894 52.0052 27.2894 48.8571C27.2894 45.7091 29.8414 43.1571 32.9894 43.1571C36.1374 43.1571 38.6894 45.7091 38.6894 48.8571ZM32.9894 70.8429C36.1374 70.8429 38.6894 68.2909 38.6894 65.1429C38.6894 61.9948 36.1374 59.4429 32.9894 59.4429C29.8414 59.4429 27.2894 61.9948 27.2894 65.1429C27.2894 68.2909 29.8414 70.8429 32.9894 70.8429ZM38.6894 81.4286C38.6894 84.5766 36.1374 87.1286 32.9894 87.1286C29.8414 87.1286 27.2894 84.5766 27.2894 81.4286C27.2894 78.2805 29.8414 75.7286 32.9894 75.7286C36.1374 75.7286 38.6894 78.2805 38.6894 81.4286ZM32.9894 99.75C34.1137 99.75 35.0251 98.8386 35.0251 97.7143C35.0251 96.59 34.1137 95.6786 32.9894 95.6786C31.8651 95.6786 30.9537 96.59 30.9537 97.7143C30.9537 98.8386 31.8651 99.75 32.9894 99.75ZM51.3108 16.2857C51.3108 17.41 50.3994 18.3214 49.2751 18.3214C48.1508 18.3214 47.2394 17.41 47.2394 16.2857C47.2394 15.1614 48.1508 14.25 49.2751 14.25C50.3994 14.25 51.3108 15.1614 51.3108 16.2857ZM49.2751 38.2714C52.4231 38.2714 54.9751 35.7195 54.9751 32.5714C54.9751 29.4234 52.4231 26.8714 49.2751 26.8714C46.1271 26.8714 43.5751 29.4234 43.5751 32.5714C43.5751 35.7195 46.1271 38.2714 49.2751 38.2714ZM51.3108 48.8571C51.3108 49.9814 50.3994 50.8929 49.2751 50.8929C48.1508 50.8929 47.2394 49.9814 47.2394 48.8571C47.2394 47.7328 48.1508 46.8214 49.2751 46.8214C50.3994 46.8214 51.3108 47.7328 51.3108 48.8571ZM49.2751 67.1786C50.3994 67.1786 51.3108 66.2672 51.3108 65.1429C51.3108 64.0186 50.3994 63.1071 49.2751 63.1071C48.1508 63.1071 47.2394 64.0186 47.2394 65.1429C47.2394 66.2672 48.1508 67.1786 49.2751 67.1786ZM54.9751 81.4286C54.9751 84.5766 52.4231 87.1286 49.2751 87.1286C46.1271 87.1286 43.5751 84.5766 43.5751 81.4286C43.5751 78.2805 46.1271 75.7286 49.2751 75.7286C52.4231 75.7286 54.9751 78.2805 54.9751 81.4286ZM49.2751 99.75C50.3994 99.75 51.3108 98.8386 51.3108 97.7143C51.3108 96.59 50.3994 95.6786 49.2751 95.6786C48.1508 95.6786 47.2394 96.59 47.2394 97.7143C47.2394 98.8386 48.1508 99.75 49.2751 99.75ZM67.5965 16.2857C67.5965 17.41 66.6851 18.3214 65.5608 18.3214C64.4365 18.3214 63.5251 17.41 63.5251 16.2857C63.5251 15.1614 64.4365 14.25 65.5608 14.25C66.6851 14.25 67.5965 15.1614 67.5965 16.2857ZM65.5608 38.2714C68.7089 38.2714 71.2608 35.7195 71.2608 32.5714C71.2608 29.4234 68.7089 26.8714 65.5608 26.8714C62.4128 26.8714 59.8608 29.4234 59.8608 32.5714C59.8608 35.7195 62.4128 38.2714 65.5608 38.2714ZM67.5965 48.8571C67.5965 49.9814 66.6851 50.8929 65.5608 50.8929C64.4365 50.8929 63.5251 49.9814 63.5251 48.8571C63.5251 47.7328 64.4365 46.8214 65.5608 46.8214C66.6851 46.8214 67.5965 47.7328 67.5965 48.8571ZM65.5608 67.1786C66.6851 67.1786 67.5965 66.2672 67.5965 65.1429C67.5965 64.0186 66.6851 63.1071 65.5608 63.1071C64.4365 63.1071 63.5251 64.0186 63.5251 65.1429C63.5251 66.2672 64.4365 67.1786 65.5608 67.1786ZM71.2608 81.4286C71.2608 84.5766 68.7089 87.1286 65.5608 87.1286C62.4128 87.1286 59.8608 84.5766 59.8608 81.4286C59.8608 78.2805 62.4128 75.7286 65.5608 75.7286C68.7089 75.7286 71.2608 78.2805 71.2608 81.4286ZM65.5608 99.75C66.6851 99.75 67.5965 98.8386 67.5965 97.7143C67.5965 96.59 66.6851 95.6786 65.5608 95.6786C64.4365 95.6786 63.5251 96.59 63.5251 97.7143C63.5251 98.8386 64.4365 99.75 65.5608 99.75ZM83.8823 16.2857C83.8823 17.41 82.9708 18.3214 81.8465 18.3214C80.7222 18.3214 79.8108 17.41 79.8108 16.2857C79.8108 15.1614 80.7222 14.25 81.8465 14.25C82.9708 14.25 83.8823 15.1614 83.8823 16.2857ZM81.8465 34.6071C82.9708 34.6071 83.8823 33.6957 83.8823 32.5714C83.8823 31.4471 82.9708 30.5357 81.8465 30.5357C80.7222 30.5357 79.8108 31.4471 79.8108 32.5714C79.8108 33.6957 80.7222 34.6071 81.8465 34.6071ZM87.5465 48.8571C87.5465 52.0052 84.9946 54.5571 81.8465 54.5571C78.6985 54.5571 76.1465 52.0052 76.1465 48.8571C76.1465 45.7091 78.6985 43.1571 81.8465 43.1571C84.9946 43.1571 87.5465 45.7091 87.5465 48.8571ZM81.8465 70.8429C84.9946 70.8429 87.5465 68.2909 87.5465 65.1429C87.5465 61.9948 84.9946 59.4429 81.8465 59.4429C78.6985 59.4429 76.1465 61.9948 76.1465 65.1429C76.1465 68.2909 78.6985 70.8429 81.8465 70.8429ZM83.8823 81.4286C83.8823 82.5529 82.9708 83.4643 81.8465 83.4643C80.7222 83.4643 79.8108 82.5529 79.8108 81.4286C79.8108 80.3043 80.7222 79.3929 81.8465 79.3929C82.9708 79.3929 83.8823 80.3043 83.8823 81.4286ZM81.8465 99.75C82.9708 99.75 83.8823 98.8386 83.8823 97.7143C83.8823 96.59 82.9708 95.6786 81.8465 95.6786C80.7222 95.6786 79.8108 96.59 79.8108 97.7143C79.8108 98.8386 80.7222 99.75 81.8465 99.75ZM100.168 16.2857C100.168 17.41 99.2566 18.3214 98.1323 18.3214C97.008 18.3214 96.0965 17.41 96.0965 16.2857C96.0965 15.1614 97.008 14.25 98.1323 14.25C99.2566 14.25 100.168 15.1614 100.168 16.2857ZM98.1323 34.6071C99.2566 34.6071 100.168 33.6957 100.168 32.5714C100.168 31.4471 99.2566 30.5357 98.1323 30.5357C97.008 30.5357 96.0965 31.4471 96.0965 32.5714C96.0965 33.6957 97.008 34.6071 98.1323 34.6071ZM100.168 48.8571C100.168 49.9814 99.2566 50.8929 98.1323 50.8929C97.008 50.8929 96.0965 49.9814 96.0965 48.8571C96.0965 47.7328 97.008 46.8214 98.1323 46.8214C99.2566 46.8214 100.168 47.7328 100.168 48.8571ZM98.1323 67.1786C99.2566 67.1786 100.168 66.2672 100.168 65.1429C100.168 64.0186 99.2566 63.1071 98.1323 63.1071C97.008 63.1071 96.0965 64.0186 96.0965 65.1429C96.0965 66.2672 97.008 67.1786 98.1323 67.1786ZM100.168 81.4286C100.168 82.5529 99.2566 83.4643 98.1323 83.4643C97.008 83.4643 96.0965 82.5529 96.0965 81.4286C96.0965 80.3043 97.008 79.3929 98.1323 79.3929C99.2566 79.3929 100.168 80.3043 100.168 81.4286ZM98.1323 99.75C99.2566 99.75 100.168 98.8386 100.168 97.7143C100.168 96.59 99.2566 95.6786 98.1323 95.6786C97.008 95.6786 96.0965 96.59 96.0965 97.7143C96.0965 98.8386 97.008 99.75 98.1323 99.75Z" fill="white"/>
</svg>
