<svg width="806" height="114" viewBox="0 0 806 114" fill="none" xmlns="http://www.w3.org/2000/svg">
<path fill-rule="evenodd" clip-rule="evenodd" d="M23.4568 0C10.502 0 0 10.502 0 23.4568V90.5432C0 103.498 10.502 114 23.4568 114H90.5432C103.498 114 114 103.498 114 90.5432V23.4568C114 10.502 103.498 0 90.5432 0H23.4568ZM16.2857 18.3214C17.41 18.3214 18.3214 17.41 18.3214 16.2857C18.3214 15.1614 17.41 14.25 16.2857 14.25C15.1614 14.25 14.25 15.1614 14.25 16.2857C14.25 17.41 15.1614 18.3214 16.2857 18.3214ZM16.2857 34.6071C17.41 34.6071 18.3214 33.6957 18.3214 32.5714C18.3214 31.4471 17.41 30.5357 16.2857 30.5357C15.1614 30.5357 14.25 31.4471 14.25 32.5714C14.25 33.6957 15.1614 34.6071 16.2857 34.6071ZM18.3214 48.8571C18.3214 49.9814 17.41 50.8929 16.2857 50.8929C15.1614 50.8929 14.25 49.9814 14.25 48.8571C14.25 47.7328 15.1614 46.8214 16.2857 46.8214C17.41 46.8214 18.3214 47.7328 18.3214 48.8571ZM16.2857 67.1786C17.41 67.1786 18.3214 66.2672 18.3214 65.1429C18.3214 64.0186 17.41 63.1071 16.2857 63.1071C15.1614 63.1071 14.25 64.0186 14.25 65.1429C14.25 66.2672 15.1614 67.1786 16.2857 67.1786ZM18.3214 81.4286C18.3214 82.5529 17.41 83.4643 16.2857 83.4643C15.1614 83.4643 14.25 82.5529 14.25 81.4286C14.25 80.3043 15.1614 79.3929 16.2857 79.3929C17.41 79.3929 18.3214 80.3043 18.3214 81.4286ZM16.2857 99.75C17.41 99.75 18.3214 98.8386 18.3214 97.7143C18.3214 96.59 17.41 95.6786 16.2857 95.6786C15.1614 95.6786 14.25 96.59 14.25 97.7143C14.25 98.8386 15.1614 99.75 16.2857 99.75ZM34.6071 16.2857C34.6071 17.41 33.6957 18.3214 32.5714 18.3214C31.4471 18.3214 30.5357 17.41 30.5357 16.2857C30.5357 15.1614 31.4471 14.25 32.5714 14.25C33.6957 14.25 34.6071 15.1614 34.6071 16.2857ZM32.5714 38.2714C35.7195 38.2714 38.2714 35.7195 38.2714 32.5714C38.2714 29.4234 35.7195 26.8714 32.5714 26.8714C29.4234 26.8714 26.8714 29.4234 26.8714 32.5714C26.8714 35.7195 29.4234 38.2714 32.5714 38.2714ZM38.2714 48.8571C38.2714 52.0052 35.7195 54.5571 32.5714 54.5571C29.4234 54.5571 26.8714 52.0052 26.8714 48.8571C26.8714 45.7091 29.4234 43.1571 32.5714 43.1571C35.7195 43.1571 38.2714 45.7091 38.2714 48.8571ZM32.5714 70.8428C35.7195 70.8428 38.2714 68.2909 38.2714 65.1429C38.2714 61.9948 35.7195 59.4429 32.5714 59.4429C29.4234 59.4429 26.8714 61.9948 26.8714 65.1429C26.8714 68.2909 29.4234 70.8428 32.5714 70.8428ZM38.2714 81.4286C38.2714 84.5766 35.7195 87.1286 32.5714 87.1286C29.4234 87.1286 26.8714 84.5766 26.8714 81.4286C26.8714 78.2805 29.4234 75.7286 32.5714 75.7286C35.7195 75.7286 38.2714 78.2805 38.2714 81.4286ZM32.5714 99.75C33.6957 99.75 34.6071 98.8386 34.6071 97.7143C34.6071 96.59 33.6957 95.6786 32.5714 95.6786C31.4471 95.6786 30.5357 96.59 30.5357 97.7143C30.5357 98.8386 31.4471 99.75 32.5714 99.75ZM50.8929 16.2857C50.8929 17.41 49.9814 18.3214 48.8571 18.3214C47.7328 18.3214 46.8214 17.41 46.8214 16.2857C46.8214 15.1614 47.7328 14.25 48.8571 14.25C49.9814 14.25 50.8929 15.1614 50.8929 16.2857ZM48.8571 38.2714C52.0052 38.2714 54.5571 35.7195 54.5571 32.5714C54.5571 29.4234 52.0052 26.8714 48.8571 26.8714C45.7091 26.8714 43.1571 29.4234 43.1571 32.5714C43.1571 35.7195 45.7091 38.2714 48.8571 38.2714ZM50.8929 48.8571C50.8929 49.9814 49.9814 50.8929 48.8571 50.8929C47.7328 50.8929 46.8214 49.9814 46.8214 48.8571C46.8214 47.7328 47.7328 46.8214 48.8571 46.8214C49.9814 46.8214 50.8929 47.7328 50.8929 48.8571ZM48.8571 67.1786C49.9814 67.1786 50.8929 66.2672 50.8929 65.1429C50.8929 64.0186 49.9814 63.1071 48.8571 63.1071C47.7328 63.1071 46.8214 64.0186 46.8214 65.1429C46.8214 66.2672 47.7328 67.1786 48.8571 67.1786ZM54.5571 81.4286C54.5571 84.5766 52.0052 87.1286 48.8571 87.1286C45.7091 87.1286 43.1571 84.5766 43.1571 81.4286C43.1571 78.2805 45.7091 75.7286 48.8571 75.7286C52.0052 75.7286 54.5571 78.2805 54.5571 81.4286ZM48.8571 99.75C49.9814 99.75 50.8929 98.8386 50.8929 97.7143C50.8929 96.59 49.9814 95.6786 48.8571 95.6786C47.7328 95.6786 46.8214 96.59 46.8214 97.7143C46.8214 98.8386 47.7328 99.75 48.8571 99.75ZM67.1786 16.2857C67.1786 17.41 66.2672 18.3214 65.1429 18.3214C64.0186 18.3214 63.1071 17.41 63.1071 16.2857C63.1071 15.1614 64.0186 14.25 65.1429 14.25C66.2672 14.25 67.1786 15.1614 67.1786 16.2857ZM65.1429 38.2714C68.2909 38.2714 70.8429 35.7195 70.8429 32.5714C70.8429 29.4234 68.2909 26.8714 65.1429 26.8714C61.9948 26.8714 59.4429 29.4234 59.4429 32.5714C59.4429 35.7195 61.9948 38.2714 65.1429 38.2714ZM67.1786 48.8571C67.1786 49.9814 66.2672 50.8929 65.1429 50.8929C64.0186 50.8929 63.1071 49.9814 63.1071 48.8571C63.1071 47.7328 64.0186 46.8214 65.1429 46.8214C66.2672 46.8214 67.1786 47.7328 67.1786 48.8571ZM65.1429 67.1786C66.2672 67.1786 67.1786 66.2672 67.1786 65.1429C67.1786 64.0186 66.2672 63.1071 65.1429 63.1071C64.0186 63.1071 63.1071 64.0186 63.1071 65.1429C63.1071 66.2672 64.0186 67.1786 65.1429 67.1786ZM70.8429 81.4286C70.8429 84.5766 68.2909 87.1286 65.1429 87.1286C61.9948 87.1286 59.4429 84.5766 59.4429 81.4286C59.4429 78.2805 61.9948 75.7286 65.1429 75.7286C68.2909 75.7286 70.8429 78.2805 70.8429 81.4286ZM65.1429 99.75C66.2672 99.75 67.1786 98.8386 67.1786 97.7143C67.1786 96.59 66.2672 95.6786 65.1429 95.6786C64.0186 95.6786 63.1071 96.59 63.1071 97.7143C63.1071 98.8386 64.0186 99.75 65.1429 99.75ZM83.4643 16.2857C83.4643 17.41 82.5529 18.3214 81.4286 18.3214C80.3043 18.3214 79.3929 17.41 79.3929 16.2857C79.3929 15.1614 80.3043 14.25 81.4286 14.25C82.5529 14.25 83.4643 15.1614 83.4643 16.2857ZM81.4286 34.6071C82.5529 34.6071 83.4643 33.6957 83.4643 32.5714C83.4643 31.4471 82.5529 30.5357 81.4286 30.5357C80.3043 30.5357 79.3929 31.4471 79.3929 32.5714C79.3929 33.6957 80.3043 34.6071 81.4286 34.6071ZM87.1286 48.8571C87.1286 52.0052 84.5766 54.5571 81.4286 54.5571C78.2805 54.5571 75.7286 52.0052 75.7286 48.8571C75.7286 45.7091 78.2805 43.1571 81.4286 43.1571C84.5766 43.1571 87.1286 45.7091 87.1286 48.8571ZM81.4286 70.8428C84.5766 70.8428 87.1286 68.2909 87.1286 65.1429C87.1286 61.9948 84.5766 59.4429 81.4286 59.4429C78.2805 59.4429 75.7286 61.9948 75.7286 65.1429C75.7286 68.2909 78.2805 70.8428 81.4286 70.8428ZM83.4643 81.4286C83.4643 82.5529 82.5529 83.4643 81.4286 83.4643C80.3043 83.4643 79.3929 82.5529 79.3929 81.4286C79.3929 80.3043 80.3043 79.3929 81.4286 79.3929C82.5529 79.3929 83.4643 80.3043 83.4643 81.4286ZM81.4286 99.75C82.5529 99.75 83.4643 98.8386 83.4643 97.7143C83.4643 96.59 82.5529 95.6786 81.4286 95.6786C80.3043 95.6786 79.3929 96.59 79.3929 97.7143C79.3929 98.8386 80.3043 99.75 81.4286 99.75ZM99.75 16.2857C99.75 17.41 98.8386 18.3214 97.7143 18.3214C96.59 18.3214 95.6786 17.41 95.6786 16.2857C95.6786 15.1614 96.59 14.25 97.7143 14.25C98.8386 14.25 99.75 15.1614 99.75 16.2857ZM97.7143 34.6071C98.8386 34.6071 99.75 33.6957 99.75 32.5714C99.75 31.4471 98.8386 30.5357 97.7143 30.5357C96.59 30.5357 95.6786 31.4471 95.6786 32.5714C95.6786 33.6957 96.59 34.6071 97.7143 34.6071ZM99.75 48.8571C99.75 49.9814 98.8386 50.8929 97.7143 50.8929C96.59 50.8929 95.6786 49.9814 95.6786 48.8571C95.6786 47.7328 96.59 46.8214 97.7143 46.8214C98.8386 46.8214 99.75 47.7328 99.75 48.8571ZM97.7143 67.1786C98.8386 67.1786 99.75 66.2672 99.75 65.1429C99.75 64.0186 98.8386 63.1071 97.7143 63.1071C96.59 63.1071 95.6786 64.0186 95.6786 65.1429C95.6786 66.2672 96.59 67.1786 97.7143 67.1786ZM99.75 81.4286C99.75 82.5529 98.8386 83.4643 97.7143 83.4643C96.59 83.4643 95.6786 82.5529 95.6786 81.4286C95.6786 80.3043 96.59 79.3929 97.7143 79.3929C98.8386 79.3929 99.75 80.3043 99.75 81.4286ZM97.7143 99.75C98.8386 99.75 99.75 98.8386 99.75 97.7143C99.75 96.59 98.8386 95.6786 97.7143 95.6786C96.59 95.6786 95.6786 96.59 95.6786 97.7143C95.6786 98.8386 96.59 99.75 97.7143 99.75Z" fill="white"/>
<path d="M161.277 88.2398H184.736C204.388 88.2398 215.718 75.2156 215.718 57.6727C215.718 39.3324 204.742 26.2195 184.736 26.2195H161.277V88.2398ZM171.015 35.0796H184.736C198.634 35.0796 205.981 44.6484 205.981 57.6727C205.981 69.4565 198.457 79.3798 184.736 79.3798H171.015V35.0796Z" fill="white"/>
<path d="M225.767 88.2398H235.504V26.2195H225.767V88.2398Z" fill="white"/>
<path d="M276.128 89.1258C286.662 89.1258 294.186 84.43 298.612 75.0384V88.2398H306.933V55.4577H268.161V64.7607H294.983C293.744 71.583 287.99 79.8228 277.013 79.8228C264.974 79.8228 255.768 70.4311 255.768 57.2297C255.768 43.7624 265.24 34.6366 276.836 34.6366C287.37 34.6366 294.629 39.7754 296.753 50.1417L306.491 47.0406C304.809 40.5728 301.445 35.3454 296.311 31.3584C291.265 27.3713 284.626 25.3335 276.57 25.3335C259.132 24.9791 245.322 39.421 245.588 57.2297C245.322 75.57 258.689 89.3916 276.128 89.1258Z" fill="white"/>
<path d="M318.266 88.2398H328.003V26.2195H318.266V88.2398Z" fill="white"/>
<path d="M391.731 26.2195H336.847V35.5226H359.42V88.2398H369.157V35.5226H391.731V26.2195Z" fill="white"/>
<path d="M384.619 88.2398H395.596L401.527 73.1778H432.155L438.086 88.2398H449.063L423.569 26.2195H410.113L384.619 88.2398ZM404.979 64.3177L416.841 34.2822L428.703 64.3177H404.979Z" fill="white"/>
<path d="M456.495 26.2195V88.2398H503.412V78.9368H466.232V26.2195H456.495Z" fill="white"/>
<path d="M544.294 63.4317H563.326C576.162 63.4317 583.244 54.4831 583.244 44.8256C583.244 34.8138 576.251 26.2195 563.326 26.2195H534.557V88.2398H544.294V63.4317ZM544.294 54.1287V35.5226H562.441C568.726 35.5226 573.064 39.1552 573.064 44.8256C573.064 50.4961 568.726 54.1287 562.441 54.1287H544.294Z" fill="white"/>
<path d="M643.529 88.2398V86.8222C642.289 85.4932 641.493 83.8984 641.139 82.215C640.873 80.443 640.608 77.785 640.43 74.1524C640.076 66.2669 636.713 61.8369 630.693 59.4447C638.483 56.6981 643.086 50.9391 643.086 43.0536C643.086 33.5734 635.65 26.2195 623.169 26.2195H593.514V88.2398H603.251V62.5457H618.3C625.47 62.5457 629.365 65.4695 629.365 74.0638C629.365 78.1394 629.542 81.1518 629.896 83.101C630.25 84.9616 630.782 86.7336 631.578 88.2398H643.529ZM603.251 53.2427V35.5226H622.283C629.011 35.5226 632.906 38.7122 632.906 44.3826C632.906 50.0531 629.011 53.2427 622.283 53.2427H603.251Z" fill="white"/>
<path d="M653.768 88.2398H663.505V26.2195H653.768V88.2398Z" fill="white"/>
<path d="M747.061 88.2398V26.2195H728.914L711.653 80.7088L694.391 26.2195H676.244V88.2398H685.981V31.6242L704.128 88.2398H719.177L737.324 31.6242V88.2398H747.061Z" fill="white"/>
<path d="M759.838 26.2195V88.2398H805.87V78.9368H769.576V60.7737H802.329V51.4707H769.576V35.5226H804.985V26.2195H759.838Z" fill="white"/>
</svg>
