<svg width="646" height="65" viewBox="0 0 646 65" fill="none" xmlns="http://www.w3.org/2000/svg">
<path d="M0.773926 63.2398H24.2329C43.8849 63.2398 55.2149 50.2156 55.2149 32.6727C55.2149 14.3324 44.2389 1.21948 24.2329 1.21948H0.773926V63.2398ZM10.5119 10.0796H24.2329C38.1309 10.0796 45.4779 19.6484 45.4779 32.6727C45.4779 44.4565 37.9539 54.3798 24.2329 54.3798H10.5119V10.0796Z" fill="white"/>
<path d="M65.2639 63.2398H75.0019V1.21948H65.2639V63.2398Z" fill="white"/>
<path d="M115.625 64.1258C126.159 64.1258 133.683 59.43 138.109 50.0384V63.2398H146.431V30.4577H107.658V39.7607H134.48C133.241 46.583 127.487 54.8228 116.51 54.8228C104.471 54.8228 95.2649 45.4311 95.2649 32.2297C95.2649 18.7624 104.737 9.63663 116.333 9.63663C126.867 9.63663 134.126 14.7754 136.25 25.1417L145.988 22.0406C144.306 15.5728 140.942 10.3454 135.808 6.35844C130.762 2.37134 124.123 0.333535 116.067 0.333535C98.629 -0.0208654 84.819 14.421 85.085 32.2297C84.819 50.57 98.1859 64.3916 115.625 64.1258Z" fill="white"/>
<path d="M157.763 63.2398H167.5V1.21948H157.763V63.2398Z" fill="white"/>
<path d="M231.228 1.21948H176.344V10.5226H198.917V63.2398H208.655V10.5226H231.228V1.21948Z" fill="white"/>
<path d="M224.116 63.2398H235.093L241.024 48.1778H271.653L277.583 63.2398H288.56L263.066 1.21948H249.611L224.116 63.2398ZM244.476 39.3177L256.338 9.28218L268.2 39.3177H244.476Z" fill="white"/>
<path d="M295.992 1.21948V63.2398H342.909V53.9368H305.729V1.21948H295.992Z" fill="white"/>
<path d="M383.791 38.4317H402.823C415.659 38.4317 422.741 29.4831 422.741 19.8256C422.741 9.81378 415.748 1.21948 402.823 1.21948H374.054V63.2398H383.791V38.4317ZM383.791 29.1287V10.5226H401.938C408.223 10.5226 412.561 14.1552 412.561 19.8256C412.561 25.4961 408.223 29.1287 401.938 29.1287H383.791Z" fill="white"/>
<path d="M483.026 63.2398V61.8222C481.787 60.4932 480.99 58.8984 480.636 57.215C480.37 55.443 480.105 52.785 479.928 49.1524C479.573 41.2669 476.21 36.8369 470.19 34.4447C477.98 31.6981 482.583 25.9391 482.583 18.0536C482.583 8.57338 475.147 1.21948 462.666 1.21948H433.011V63.2398H442.748V37.5457H457.797C464.967 37.5457 468.862 40.4695 468.862 49.0638C468.862 53.1394 469.039 56.1518 469.393 58.101C469.748 59.9616 470.279 61.7336 471.075 63.2398H483.026ZM442.748 28.2427V10.5226H461.781C468.508 10.5226 472.403 13.7122 472.403 19.3826C472.403 25.0531 468.508 28.2427 461.781 28.2427H442.748Z" fill="white"/>
<path d="M493.265 63.2398H503.002V1.21948H493.265V63.2398Z" fill="white"/>
<path d="M586.559 63.2398V1.21948H568.412L551.15 55.7088L533.888 1.21948H515.741V63.2398H525.478V6.62418L543.625 63.2398H558.674L576.821 6.62418V63.2398H586.559Z" fill="white"/>
<path d="M599.336 1.21948V63.2398H645.367V53.9368H609.073V35.7737H641.826V26.4707H609.073V10.5226H644.482V1.21948H599.336Z" fill="white"/>
</svg>
